<svg data-logo="logo" xmlns="http://www.w3.org/2000/svg" viewBox="0 0 251 44">
        <g style="opacity: 1;" id="logogram" transform="translate(0, 2) rotate(0)"><path d="M28.7089 33.1053L1.9434 14.6424C-0.768963 12.7715 0.15306 8.87601 3.53531 7.95996L31.9823 0.239132C32.5849 0.0216955 33.2306 -0.0488885 33.866 0.0332432C34.5013 0.115375 35.1079 0.34785 35.6355 0.711378C36.1629 1.07491 36.5961 1.559 36.899 2.12348C37.2018 2.68795 37.3658 3.31654 37.3771 3.95706L35.6912 30.1393C35.4913 33.247 31.4213 34.9762 28.7089 33.1053Z" fill="#E9327C"></path><path d="M20.2197 37.6632L4.45132 6.82618C4.09087 6.12072 3.93226 5.32941 3.99297 4.53953C4.05367 3.74965 4.33135 2.99187 4.79536 2.34978C5.25939 1.70769 5.89172 1.20622 6.62264 0.900668C7.35356 0.595117 8.15466 0.497365 8.93761 0.618198L38.1604 5.12834C38.8331 5.23219 39.4717 5.49425 40.0236 5.89298C40.5753 6.29172 41.0245 6.81572 41.3344 7.42191C41.6441 8.0281 41.8057 8.69917 41.8055 9.37994C41.8054 10.0607 41.6437 10.7317 41.3338 11.3378L27.8719 37.6647C27.5104 38.3681 26.962 38.9583 26.2869 39.3703C25.6118 39.7823 24.8363 40.0002 24.0454 40C23.2545 39.9999 22.479 39.7817 21.804 39.3695C21.1291 38.9571 20.5809 38.3668 20.2197 37.6632Z" fill="#1DACE3"></path><path d="M37.3055 4.9955L22.7382 2.74713L4.85269 7.60342L11.9917 21.5695L28.7089 33.1053C29.0777 33.357 29.4834 33.5497 29.9114 33.6767L36.2612 21.2592L37.3055 4.9955Z" fill="#001A49"></path></g>
        <g style="opacity: 1;" id="logotype" transform="translate(48, 1)"><path fill="#ffffff" d="M17.25 34L17.25 34L10.67 34L10.67 29.51L17.01 29.51Q19.47 29.51 21.13 28.63Q22.80 27.76 23.64 25.93Q24.47 24.10 24.47 21.25L24.47 21.25Q24.47 18.41 23.63 16.59Q22.78 14.77 21.13 13.90Q19.48 13.03 17.04 13.03L17.04 13.03L10.55 13.03L10.55 8.54L17.35 8.54Q21.18 8.54 23.94 10.07Q26.70 11.60 28.18 14.44Q29.67 17.29 29.67 21.25L29.67 21.25Q29.67 25.23 28.18 28.09Q26.70 30.94 23.91 32.47Q21.12 34 17.25 34ZM8.31 8.54L13.52 8.54L13.52 34L8.31 34L8.31 8.54ZM36.32 34L31.19 34L31.19 14.89L36.32 14.89L36.32 34ZM33.75 12.40L33.75 12.40Q32.59 12.40 31.77 11.63Q30.95 10.86 30.95 9.77L30.95 9.77Q30.95 8.67 31.77 7.90Q32.59 7.13 33.75 7.13L33.75 7.13Q34.91 7.13 35.74 7.90Q36.57 8.66 36.57 9.77L36.57 9.77Q36.57 10.86 35.74 11.63Q34.91 12.40 33.75 12.40ZM46.87 41.55L46.87 41.55Q44.50 41.55 42.72 40.95Q40.94 40.34 39.83 39.28Q38.72 38.22 38.30 36.87L38.30 36.87L42.70 35.64Q42.94 36.17 43.45 36.67Q43.95 37.18 44.79 37.50Q45.63 37.83 46.86 37.83L46.86 37.83Q48.82 37.83 49.94 36.93Q51.06 36.03 51.06 34.14L51.06 34.14L51.06 30.62L50.67 30.62Q50.33 31.39 49.68 32.10Q49.03 32.82 47.98 33.27Q46.93 33.73 45.37 33.73L45.37 33.73Q43.22 33.73 41.46 32.72Q39.70 31.71 38.65 29.64Q37.60 27.57 37.60 24.41L37.60 24.41Q37.60 21.18 38.66 19.01Q39.73 16.84 41.50 15.75Q43.27 14.65 45.39 14.65L45.39 14.65Q46.99 14.65 48.09 15.19Q49.18 15.73 49.86 16.54Q50.53 17.35 50.87 18.11L50.87 18.11L51.10 18.11L51.10 14.89L56.14 14.89L56.14 33.85Q56.14 36.43 54.95 38.14Q53.76 39.86 51.68 40.71Q49.59 41.55 46.87 41.55ZM46.98 29.83L46.98 29.83Q48.29 29.83 49.21 29.18Q50.12 28.53 50.60 27.31Q51.08 26.09 51.08 24.38L51.08 24.38Q51.08 22.69 50.60 21.42Q50.12 20.16 49.21 19.46Q48.29 18.76 46.98 18.76L46.98 18.76Q45.63 18.76 44.71 19.48Q43.80 20.21 43.33 21.47Q42.86 22.74 42.86 24.38L42.86 24.38Q42.86 26.05 43.33 27.28Q43.80 28.50 44.72 29.16Q45.64 29.83 46.98 29.83ZM63.36 34L58.24 34L58.24 14.89L63.36 14.89L63.36 34ZM60.80 12.40L60.80 12.40Q59.64 12.40 58.82 11.63Q58.00 10.86 58.00 9.77L58.00 9.77Q58.00 8.67 58.82 7.90Q59.64 7.13 60.80 7.13L60.80 7.13Q61.96 7.13 62.79 7.90Q63.62 8.66 63.62 9.77L63.62 9.77Q63.62 10.86 62.79 11.63Q61.96 12.40 60.80 12.40ZM63.60 14.89L74.93 14.89L74.93 18.81L63.60 18.81L63.60 14.89ZM66.23 28.86L66.23 10.35L71.36 10.35L71.36 28.41Q71.36 29.32 71.76 29.75Q72.16 30.19 73.10 30.19L73.10 30.19Q73.39 30.19 73.92 30.11Q74.45 30.04 74.73 29.97L74.73 29.97L75.46 33.81Q74.61 34.07 73.76 34.17Q72.92 34.27 72.15 34.27L72.15 34.27Q69.28 34.27 67.75 32.87Q66.23 31.47 66.23 28.86L66.23 28.86ZM81.32 34.38L81.32 34.38Q79.51 34.38 78.07 33.74Q76.62 33.09 75.79 31.82Q74.96 30.55 74.96 28.65L74.96 28.65Q74.96 27.06 75.55 25.98Q76.14 24.91 77.16 24.26Q78.18 23.61 79.47 23.27Q80.76 22.93 82.18 22.79L82.18 22.79Q83.83 22.62 84.85 22.47Q85.87 22.33 86.34 22.01Q86.81 21.70 86.81 21.08L86.81 21.08L86.81 20.99Q86.81 20.17 86.47 19.61Q86.12 19.05 85.46 18.75Q84.79 18.45 83.82 18.45L83.82 18.45Q82.83 18.45 82.09 18.75Q81.36 19.05 80.89 19.54Q80.43 20.04 80.21 20.65L80.21 20.65L75.51 19.87Q76.01 18.21 77.15 17.05Q78.30 15.88 80.00 15.27Q81.70 14.65 83.82 14.65L83.82 14.65Q85.37 14.65 86.82 15.02Q88.28 15.39 89.43 16.16Q90.58 16.93 91.26 18.16Q91.93 19.39 91.93 21.13L91.93 21.13L91.93 34L87.08 34L87.08 31.35L86.91 31.35Q86.45 32.24 85.68 32.91Q84.91 33.59 83.83 33.98Q82.74 34.38 81.32 34.38ZM82.77 30.77L82.77 30.77Q83.99 30.77 84.90 30.29Q85.82 29.81 86.33 28.99Q86.84 28.17 86.84 27.16L86.84 27.16L86.84 25.10Q86.62 25.27 86.16 25.40Q85.70 25.54 85.13 25.64Q84.57 25.75 84.02 25.83Q83.48 25.92 83.05 25.97L83.05 25.97Q82.11 26.10 81.39 26.41Q80.67 26.72 80.28 27.22Q79.89 27.73 79.89 28.51L79.89 28.51Q79.89 29.25 80.26 29.75Q80.64 30.26 81.28 30.51Q81.92 30.77 82.77 30.77ZM94.03 8.54L99.16 8.54L99.16 34L94.03 34L94.03 8.54ZM118.71 34L112.74 34L105.91 8.54L111.60 8.54L114.56 21.06Q114.91 22.64 115.21 24.42Q115.51 26.21 115.80 28.01Q116.09 29.81 116.37 31.47L116.37 31.47L115.44 31.47Q115.75 29.81 116.06 28.01Q116.37 26.21 116.69 24.42Q117.02 22.64 117.41 21.06L117.41 21.06L120.52 8.54L125.94 8.54L129.03 21.06Q129.42 22.64 129.75 24.42Q130.07 26.21 130.39 28.01Q130.71 29.81 131.01 31.47L131.01 31.47L130.06 31.47Q130.35 29.81 130.63 28.01Q130.91 26.21 131.23 24.42Q131.54 22.64 131.88 21.06L131.88 21.06L134.84 8.54L140.55 8.54L133.70 34L127.75 34L124.36 20.98Q123.82 18.81 123.43 16.27Q123.05 13.73 122.57 11.07L122.57 11.07L123.87 11.07Q123.34 13.68 123.01 16.18Q122.67 18.67 122.07 20.98L122.07 20.98L118.71 34ZM146.63 34.38L146.63 34.38Q144.82 34.38 143.38 33.74Q141.93 33.09 141.10 31.82Q140.27 30.55 140.27 28.65L140.27 28.65Q140.27 27.06 140.86 25.98Q141.45 24.91 142.47 24.26Q143.49 23.61 144.78 23.27Q146.07 22.93 147.49 22.79L147.49 22.79Q149.14 22.62 150.16 22.47Q151.18 22.33 151.65 22.01Q152.12 21.70 152.12 21.08L152.12 21.08L152.12 20.99Q152.12 20.17 151.77 19.61Q151.43 19.05 150.77 18.75Q150.10 18.45 149.13 18.45L149.13 18.45Q148.13 18.45 147.40 18.75Q146.67 19.05 146.20 19.54Q145.74 20.04 145.52 20.65L145.52 20.65L140.82 19.87Q141.32 18.21 142.46 17.05Q143.61 15.88 145.31 15.27Q147.01 14.65 149.13 14.65L149.13 14.65Q150.68 14.65 152.13 15.02Q153.59 15.39 154.74 16.16Q155.89 16.93 156.57 18.16Q157.24 19.39 157.24 21.13L157.24 21.13L157.24 34L152.39 34L152.39 31.35L152.22 31.35Q151.76 32.24 150.99 32.91Q150.22 33.59 149.13 33.98Q148.05 34.38 146.63 34.38ZM148.08 30.77L148.08 30.77Q149.30 30.77 150.21 30.29Q151.13 29.81 151.64 28.99Q152.15 28.17 152.15 27.16L152.15 27.16L152.15 25.10Q151.93 25.27 151.47 25.40Q151.01 25.54 150.44 25.64Q149.88 25.75 149.33 25.83Q148.78 25.92 148.36 25.97L148.36 25.97Q147.42 26.10 146.70 26.41Q145.98 26.72 145.59 27.22Q145.20 27.73 145.20 28.51L145.20 28.51Q145.20 29.25 145.57 29.75Q145.95 30.26 146.59 30.51Q147.23 30.77 148.08 30.77ZM159.34 8.54L164.47 8.54L164.47 34L159.34 34L159.34 8.54ZM166.55 8.54L171.68 8.54L171.68 34L166.55 34L166.55 8.54ZM182.39 34.38L182.39 34.38Q179.47 34.38 177.35 33.18Q175.23 31.98 174.10 29.78Q172.96 27.57 172.96 24.55L172.96 24.55Q172.96 21.59 174.09 19.37Q175.22 17.15 177.28 15.90Q179.35 14.65 182.14 14.65L182.14 14.65Q184.02 14.65 185.64 15.25Q187.26 15.85 188.49 17.06Q189.73 18.26 190.42 20.07Q191.11 21.88 191.11 24.34L191.11 24.34L191.11 25.78L175.06 25.78L175.06 22.57L188.60 22.57L186.20 23.42Q186.20 21.93 185.75 20.83Q185.30 19.73 184.40 19.12Q183.50 18.52 182.17 18.52L182.17 18.52Q180.86 18.52 179.92 19.13Q178.99 19.75 178.51 20.80Q178.04 21.85 178.04 23.20L178.04 23.20L178.04 25.47Q178.04 27.13 178.59 28.26Q179.15 29.39 180.15 29.95Q181.15 30.51 182.48 30.51L182.48 30.51Q183.39 30.51 184.12 30.26Q184.85 30.00 185.38 29.50Q185.90 28.99 186.17 28.26L186.17 28.26L190.82 29.13Q190.36 30.70 189.21 31.89Q188.07 33.08 186.35 33.73Q184.63 34.38 182.39 34.38ZM190.49 14.89L201.82 14.89L201.82 18.81L190.49 18.81L190.49 14.89ZM193.12 28.86L193.12 10.35L198.25 10.35L198.25 28.41Q198.25 29.32 198.65 29.75Q199.05 30.19 199.99 30.19L199.99 30.19Q200.28 30.19 200.81 30.11Q201.34 30.04 201.62 29.97L201.62 29.97L202.35 33.81Q201.50 34.07 200.65 34.17Q199.81 34.27 199.04 34.27L199.04 34.27Q196.17 34.27 194.65 32.87Q193.12 31.47 193.12 28.86L193.12 28.86Z"></path></g>
        
      </svg>